# xmcd
#
# Track frame offsets:
#	150
#	19880
#	35075
#	60780
#	96405
#	109532
#	134465
#	150100
#	183450
#	203470
#	229232
#
# Disc length: 3253 seconds
#
# Revision: 1
# Processed by: cddbd v1.4PL0 Copyright (c) Steve Scherf et al.
# Submitted via: audiograbber 1.80
#
DISCID=840cb30b
DTITLE=Fred and The Healers - I gotta leave
DYEAR=1900
DGENRE=
TTITLE0=Is That A Shame ?!
TTITLE1=Play It Loud
TTITLE2=Love Is Comin'
TTITLE3=Green Wave
TTITLE4=Goin' Down
TTITLE5=The King Of The Highway
TTITLE6=I Gotta Leave
TTITLE7=You Can't Fool Me
TTITLE8=Too Tired
TTITLE9=The Spider And The Fly
TTITLE10=Buzzin' Around
EXTD=
EXTT0=
EXTT1=
EXTT2=
EXTT3=
EXTT4=
EXTT5=
EXTT6=
EXTT7=
EXTT8=
EXTT9=
EXTT10=
PLAYORDER=
